# https://github.com/mikedh/trimesh
mtllib material0.mtl
usemtl material0
v 1.93010000 2.60000000 -0.78610000
v 1.81010000 2.60000000 -1.02610000
v 1.81010000 2.60000000 -0.90610000
v 5.75950000 2.60000000 -0.78610000
v 5.99950000 2.60000000 -1.02610000
v 1.93010000 0.00000000 -0.78610000
v 1.81010000 0.00000000 -1.02610000
v 1.81010000 0.00000000 -0.90610000
v 5.75950000 0.00000000 -0.78610000
v 5.99950000 0.00000000 -1.02610000
v 1.93010000 0.00000000 -0.78610000
v 1.93010000 2.40000000 -0.78610000
v 5.54950000 2.40000000 -0.78610000
v 5.54950000 2.60000000 -0.78610000
v 5.75950000 0.00000000 -0.78610000
v 5.75950000 2.60000000 -0.78610000
v 1.81010000 0.00000000 -1.02610000
v 1.81010000 2.60000000 -1.02610000
v 5.99950000 0.00000000 -1.02610000
v 5.99950000 2.60000000 -1.02610000
v 1.93010000 0.11500000 -0.78610000
v 1.94610000 0.00000000 -0.77010000
v 1.94610000 0.11500000 -0.77010000
v 1.94610000 0.11500000 -0.77010000
v 5.75950000 0.11500000 -0.78610000
v 5.74350000 0.00000000 -0.77010000
v 5.74350000 0.11500000 -0.77010000
v 5.74350000 0.11500000 -0.77010000
v 1.93010000 0.00000000 -0.78610000
v 1.93010000 0.00000000 -0.78610000
v 1.93010000 0.11500000 -0.78610000
v 1.94610000 0.00000000 -0.77010000
v 5.75950000 0.00000000 -0.78610000
v 5.75950000 0.00000000 -0.78610000
v 5.75950000 0.11500000 -0.78610000
v 5.74350000 0.00000000 -0.77010000
v 1.93010000 2.60000000 2.35380000
v 1.81010000 2.60000000 2.47380000
v 1.81010000 2.60000000 2.59380000
v 5.75950000 2.60000000 2.35380000
v 5.99950000 2.60000000 2.59380000
v 1.93010000 0.00000000 2.35380000
v 1.81010000 0.00000000 2.47380000
v 1.81010000 0.00000000 2.59380000
v 5.75950000 0.00000000 2.35380000
v 5.99950000 0.00000000 2.59380000
v 1.93010000 0.00000000 2.35380000
v 1.93010000 2.40000000 2.35380000
v 5.54950000 2.40000000 2.35380000
v 5.54950000 2.60000000 2.35380000
v 5.75950000 0.00000000 2.35380000
v 5.75950000 2.60000000 2.35380000
v 1.81010000 0.00000000 2.59380000
v 1.81010000 2.60000000 2.59380000
v 5.99950000 0.00000000 2.59380000
v 5.99950000 2.60000000 2.59380000
v 1.93010000 0.11500000 2.35380000
v 1.94610000 0.00000000 2.33780000
v 1.94610000 0.11500000 2.33780000
v 1.94610000 0.11500000 2.33780000
v 5.75950000 0.11500000 2.35380000
v 5.74350000 0.00000000 2.33780000
v 5.74350000 0.11500000 2.33780000
v 5.74350000 0.11500000 2.33780000
v 1.93010000 0.00000000 2.35380000
v 1.93010000 0.00000000 2.35380000
v 1.93010000 0.11500000 2.35380000
v 1.94610000 0.00000000 2.33780000
v 5.75950000 0.00000000 2.35380000
v 5.75950000 0.00000000 2.35380000
v 5.75950000 0.11500000 2.35380000
v 5.74350000 0.00000000 2.33780000
v 5.75950000 2.60000000 2.35380000
v 5.75950000 2.60000000 -0.78610000
v 5.99950000 2.60000000 2.59380000
v 5.99950000 2.60000000 -1.02610000
v 5.75950000 0.00000000 2.35380000
v 5.75950000 0.00000000 -0.78610000
v 5.99950000 0.00000000 2.59380000
v 5.99950000 0.00000000 -1.02610000
v 5.75950000 0.00000000 2.35380000
v 5.75950000 0.00000000 -0.78610000
v 5.75950000 2.60000000 2.35380000
v 5.75950000 2.60000000 -0.78610000
v 5.75950000 2.46260000 2.24351000
v 5.75950000 2.46260000 0.52749000
v 5.75950000 0.85000000 2.24351000
v 5.75950000 0.85000000 0.52749000
v 5.99950000 0.00000000 2.59380000
v 5.99950000 0.00000000 -1.02610000
v 5.99950000 2.60000000 2.59380000
v 5.99950000 2.60000000 -1.02610000
v 5.99950000 2.46260000 2.24351000
v 5.99950000 2.46260000 0.52749000
v 5.99950000 0.85000000 2.24351000
v 5.99950000 0.85000000 0.52749000
v 5.75950000 0.11500000 2.35380000
v 5.75950000 0.11500000 -0.78610000
v 5.74350000 0.00000000 2.33780000
v 5.74350000 0.00000000 -0.77010000
v 5.74350000 0.11500000 2.33780000
v 5.74350000 0.11500000 2.33780000
v 5.74350000 0.11500000 -0.77010000
v 5.74350000 0.11500000 -0.77010000
v 5.75950000 0.00000000 2.35380000
v 5.75950000 0.00000000 2.35380000
v 5.75950000 0.00000000 -0.78610000
v 5.75950000 0.00000000 -0.78610000
v 5.75950000 0.11500000 2.35380000
v 5.75950000 0.11500000 -0.78610000
v 5.74350000 0.00000000 2.33780000
v 5.74350000 0.00000000 -0.77010000
v 1.93010000 0.00000000 2.35380000
v 1.93010000 0.00000000 1.27610000
v 1.93010000 0.00000000 2.07610000
v 1.93010000 0.00000000 -0.78610000
v 1.93010000 2.40000000 2.35375000
v 1.93010000 2.40000000 -0.78610000
v 1.93010000 2.60000000 2.35380000
v 1.93010000 2.60000000 2.35375000
v 1.93010000 2.00000000 1.27610000
v 1.93010000 2.00000000 2.07610000
v 1.93010000 0.11500000 2.35380000
v 1.93010000 0.11500000 1.21010000
v 1.93010000 0.11500000 -0.78610000
v 1.93010000 0.11500000 2.14210000
v 1.94610000 0.00000000 2.33780000
v 1.94610000 0.00000000 1.21010000
v 1.94610000 0.00000000 -0.77010000
v 1.94610000 0.00000000 2.14210000
v 1.94610000 0.11500000 2.33780000
v 1.94610000 0.11500000 2.33780000
v 1.94610000 0.11500000 1.21010000
v 1.94610000 0.11500000 1.21010000
v 1.94610000 0.11500000 -0.77010000
v 1.94610000 0.11500000 -0.77010000
v 1.94610000 0.11500000 2.14210000
v 1.94610000 0.11500000 2.14210000
v 1.93010000 0.00000000 2.35380000
v 1.93010000 0.00000000 2.35380000
v 1.93010000 0.00000000 1.21010000
v 1.93010000 0.00000000 1.21010000
v 1.93010000 0.00000000 1.21010000
v 1.93010000 0.00000000 -0.78610000
v 1.93010000 0.00000000 -0.78610000
v 1.93010000 0.00000000 2.14210000
v 1.93010000 0.00000000 2.14210000
v 1.93010000 0.00000000 2.14210000
v 1.93010000 0.11500000 2.35380000
v 1.93010000 0.11500000 1.21010000
v 1.93010000 0.11500000 1.21010000
v 1.93010000 0.11500000 -0.78610000
v 1.93010000 0.11500000 2.14210000
v 1.93010000 0.11500000 2.14210000
v 1.94610000 0.00000000 2.33780000
v 1.94610000 0.00000000 1.21010000
v 1.94610000 0.00000000 1.21010000
v 1.94610000 0.00000000 -0.77010000
v 1.94610000 0.00000000 2.14210000
v 1.94610000 0.00000000 2.14210000
v 1.94610000 0.11500000 1.21010000
v 1.94610000 0.11500000 2.14210000
v 5.75950000 2.46260000 2.24351000
v 5.75950000 2.46260000 2.24351000
v 5.75950000 2.46260000 0.52749000
v 5.75950000 2.46260000 0.52749000
v 5.75950000 0.85000000 2.24351000
v 5.75950000 0.85000000 2.24351000
v 5.75950000 0.85000000 0.52749000
v 5.75950000 0.85000000 0.52749000
v 5.99950000 2.46260000 2.24351000
v 5.99950000 2.46260000 2.24351000
v 5.99950000 2.46260000 0.52749000
v 5.99950000 2.46260000 0.52749000
v 5.99950000 0.85000000 2.24351000
v 5.99950000 0.85000000 2.24351000
v 5.99950000 0.85000000 0.52749000
v 5.99950000 0.85000000 0.52749000
vn 0.00000000 1.00000000 0.00000000
vn 0.00000000 1.00000000 0.00000000
vn 0.00000000 1.00000000 0.00000000
vn 0.00000000 1.00000000 0.00000000
vn 0.00000000 1.00000000 0.00000000
vn 0.00000000 -1.00000000 0.00000000
vn 0.00000000 -1.00000000 0.00000000
vn 0.00000000 -1.00000000 0.00000000
vn 0.00000000 -1.00000000 0.00000000
vn 0.00000000 -1.00000000 0.00000000
vn 0.00000000 0.00000000 1.00000000
vn 0.00000000 0.00000000 1.00000000
vn 0.00000000 0.00000000 1.00000000
vn 0.00000000 0.00000000 1.00000000
vn 0.00000000 0.00000000 1.00000000
vn 0.00000000 0.00000000 1.00000000
vn 0.00000000 0.00000000 -1.00000000
vn 0.00000000 0.00000000 -1.00000000
vn 0.00000000 0.00000000 -1.00000000
vn 0.00000000 0.00000000 -1.00000000
vn 0.00000000 1.00000000 0.00000000
vn 0.00000000 0.00000000 1.00000000
vn 0.00000000 0.00000000 1.00000000
vn 0.00000000 1.00000000 0.00000000
vn 0.00000000 1.00000000 0.00000000
vn 0.00000000 0.00000000 1.00000000
vn 0.00000000 0.00000000 1.00000000
vn 0.00000000 1.00000000 0.00000000
vn 0.00000000 0.00000000 -1.00000000
vn 0.00000000 -1.00000000 0.00000000
vn 0.00000000 0.00000000 -1.00000000
vn 0.00000000 -1.00000000 0.00000000
vn 0.00000000 -1.00000000 0.00000000
vn 0.00000000 0.00000000 -1.00000000
vn 0.00000000 0.00000000 -1.00000000
vn 0.00000000 -1.00000000 0.00000000
vn 0.00000000 1.00000000 0.00000000
vn 0.00000000 1.00000000 0.00000000
vn 0.00000000 1.00000000 0.00000000
vn 0.00000000 1.00000000 0.00000000
vn 0.00000000 1.00000000 0.00000000
vn 0.00000000 -1.00000000 0.00000000
vn 0.00000000 -1.00000000 0.00000000
vn 0.00000000 -1.00000000 0.00000000
vn 0.00000000 -1.00000000 0.00000000
vn 0.00000000 -1.00000000 0.00000000
vn 0.00000000 0.00000000 -1.00000000
vn 0.00000000 0.00000000 -1.00000000
vn 0.00000000 0.00000000 -1.00000000
vn 0.00000000 0.00000000 -1.00000000
vn 0.00000000 0.00000000 -1.00000000
vn 0.00000000 0.00000000 -1.00000000
vn 0.00000000 0.00000000 1.00000000
vn 0.00000000 0.00000000 1.00000000
vn 0.00000000 0.00000000 1.00000000
vn 0.00000000 0.00000000 1.00000000
vn 0.00000000 1.00000000 0.00000000
vn 0.00000000 0.00000000 -1.00000000
vn 0.00000000 0.00000000 -1.00000000
vn 0.00000000 1.00000000 0.00000000
vn 0.00000000 1.00000000 0.00000000
vn 0.00000000 0.00000000 -1.00000000
vn 0.00000000 0.00000000 -1.00000000
vn 0.00000000 1.00000000 0.00000000
vn 0.00000000 -1.00000000 0.00000000
vn 0.00000000 0.00000000 1.00000000
vn 0.00000000 0.00000000 1.00000000
vn 0.00000000 -1.00000000 0.00000000
vn 0.00000000 0.00000000 1.00000000
vn 0.00000000 -1.00000000 0.00000000
vn 0.00000000 0.00000000 1.00000000
vn 0.00000000 -1.00000000 0.00000000
vn 0.00000000 1.00000000 0.00000000
vn 0.00000000 1.00000000 0.00000000
vn 0.00000000 1.00000000 0.00000000
vn 0.00000000 1.00000000 0.00000000
vn 0.00000000 -1.00000000 0.00000000
vn 0.00000000 -1.00000000 0.00000000
vn 0.00000000 -1.00000000 0.00000000
vn 0.00000000 -1.00000000 0.00000000
vn -1.00000000 0.00000000 0.00000000
vn -1.00000000 0.00000000 0.00000000
vn -1.00000000 0.00000000 0.00000000
vn -1.00000000 0.00000000 0.00000000
vn -1.00000000 0.00000000 0.00000000
vn -1.00000000 0.00000000 0.00000000
vn -1.00000000 0.00000000 0.00000000
vn -1.00000000 0.00000000 0.00000000
vn 1.00000000 0.00000000 0.00000000
vn 1.00000000 0.00000000 0.00000000
vn 1.00000000 0.00000000 0.00000000
vn 1.00000000 0.00000000 0.00000000
vn 1.00000000 0.00000000 0.00000000
vn 1.00000000 0.00000000 0.00000000
vn 1.00000000 0.00000000 0.00000000
vn 1.00000000 0.00000000 0.00000000
vn 0.00000000 1.00000000 0.00000000
vn 0.00000000 1.00000000 0.00000000
vn -1.00000000 0.00000000 0.00000000
vn -1.00000000 0.00000000 0.00000000
vn 0.00000000 1.00000000 0.00000000
vn -1.00000000 0.00000000 0.00000000
vn 0.00000000 1.00000000 0.00000000
vn -1.00000000 0.00000000 0.00000000
vn 1.00000000 0.00000000 0.00000000
vn 0.00000000 -1.00000000 0.00000000
vn 1.00000000 0.00000000 0.00000000
vn 0.00000000 -1.00000000 0.00000000
vn 1.00000000 0.00000000 0.00000000
vn 1.00000000 0.00000000 0.00000000
vn 0.00000000 -1.00000000 0.00000000
vn 0.00000000 -1.00000000 0.00000000
vn 1.00000000 0.00000000 0.00000000
vn 1.00000000 0.00000000 0.00000000
vn 1.00000000 0.00000000 0.00000000
vn 1.00000000 0.00000000 0.00000000
vn 1.00000000 0.00000000 0.00000000
vn 1.00000000 0.00000000 0.00000000
vn 1.00000000 0.00000000 0.00000000
vn 1.00000000 0.00000000 0.00000000
vn 1.00000000 0.00000000 0.00000000
vn 1.00000000 0.00000000 0.00000000
vn 0.00000000 1.00000000 0.00000000
vn 0.00000000 1.00000000 0.00000000
vn 0.00000000 1.00000000 0.00000000
vn 0.00000000 1.00000000 0.00000000
vn 1.00000000 0.00000000 0.00000000
vn 1.00000000 0.00000000 0.00000000
vn 1.00000000 0.00000000 0.00000000
vn 1.00000000 0.00000000 0.00000000
vn 0.00000000 1.00000000 0.00000000
vn 1.00000000 0.00000000 0.00000000
vn 0.00000000 1.00000000 0.00000000
vn 1.00000000 0.00000000 0.00000000
vn 0.00000000 1.00000000 0.00000000
vn 1.00000000 0.00000000 0.00000000
vn 0.00000000 1.00000000 0.00000000
vn 1.00000000 0.00000000 0.00000000
vn -1.00000000 0.00000000 0.00000000
vn 0.00000000 -1.00000000 0.00000000
vn 0.00000000 0.00000000 -1.00000000
vn -1.00000000 0.00000000 0.00000000
vn 0.00000000 -1.00000000 0.00000000
vn -1.00000000 0.00000000 0.00000000
vn 0.00000000 -1.00000000 0.00000000
vn 0.00000000 0.00000000 1.00000000
vn -1.00000000 0.00000000 0.00000000
vn 0.00000000 -1.00000000 0.00000000
vn -1.00000000 0.00000000 0.00000000
vn 0.00000000 0.00000000 -1.00000000
vn -1.00000000 0.00000000 0.00000000
vn -1.00000000 0.00000000 0.00000000
vn 0.00000000 0.00000000 1.00000000
vn -1.00000000 0.00000000 0.00000000
vn 0.00000000 -1.00000000 0.00000000
vn 0.00000000 -1.00000000 0.00000000
vn 0.00000000 0.00000000 -1.00000000
vn 0.00000000 -1.00000000 0.00000000
vn 0.00000000 -1.00000000 0.00000000
vn 0.00000000 0.00000000 1.00000000
vn 0.00000000 0.00000000 -1.00000000
vn 0.00000000 0.00000000 1.00000000
vn 0.00000000 0.00000000 -1.00000000
vn 0.00000000 -1.00000000 0.00000000
vn 0.00000000 0.00000000 1.00000000
vn 0.00000000 -1.00000000 0.00000000
vn 0.00000000 0.00000000 -1.00000000
vn 0.00000000 1.00000000 0.00000000
vn 0.00000000 0.00000000 1.00000000
vn 0.00000000 1.00000000 0.00000000
vn 0.00000000 0.00000000 -1.00000000
vn 0.00000000 -1.00000000 0.00000000
vn 0.00000000 0.00000000 1.00000000
vn 0.00000000 -1.00000000 0.00000000
vn 0.00000000 1.00000000 0.00000000
vn 0.00000000 0.00000000 -1.00000000
vn 0.00000000 1.00000000 0.00000000
vn 0.00000000 0.00000000 1.00000000
vt 0.12000000 -0.24000000
vt 0.00000000 0.00000000
vt 0.00000000 -0.12000000
vt 3.94940000 -0.24000000
vt 4.18940000 0.00000000
vt 0.12000000 -0.24000000
vt 0.00000000 0.00000000
vt 0.00000000 -0.12000000
vt 3.94940000 -0.24000000
vt 4.18940000 0.00000000
vt 0.00000000 -4.90566000
vt 0.00000000 -0.37736000
vt 6.82906000 -0.37736000
vt 6.82906000 0.00000000
vt 7.22528000 -4.90566000
vt 7.22528000 0.00000000
vt 4.18940000 -2.60000000
vt 4.18940000 0.00000000
vt 0.00000000 -2.60000000
vt 0.00000000 0.00000000
vt 29.23206000 1.00000000
vt 29.10992000 0.00000000
vt 29.10992000 0.87786000
vt 29.10992000 0.87786000
vt 0.00000000 1.00000000
vt 0.12214000 0.00000000
vt 0.12214000 0.87786000
vt 0.12214000 0.87786000
vt 0.00000000 0.87786000
vt 0.12214000 0.12214000
vt 0.00000000 0.00000000
vt 0.00000000 0.00000000
vt 29.10992000 0.12214000
vt 29.23206000 0.87786000
vt 29.23206000 0.00000000
vt 29.23206000 0.00000000
vt 0.12000000 0.00000000
vt 0.00000000 -0.12000000
vt 0.00000000 -0.24000000
vt 3.94940000 0.00000000
vt 4.18940000 -0.24000000
vt 0.12000000 0.00000000
vt 0.00000000 -0.12000000
vt 0.00000000 -0.24000000
vt 3.94940000 0.00000000
vt 4.18940000 -0.24000000
vt 3.82940000 -2.60000000
vt 3.82940000 -0.20000000
vt 0.21000000 -0.20000000
vt 0.21000000 0.00000000
vt 0.00000000 -2.60000000
vt 0.00000000 0.00000000
vt 0.00000000 -2.60000000
vt 0.00000000 0.00000000
vt 4.18940000 -2.60000000
vt 4.18940000 0.00000000
vt 0.00000000 1.00000000
vt 0.12214000 0.00000000
vt 0.12214000 0.87786000
vt 0.12214000 0.87786000
vt 29.23206000 1.00000000
vt 29.10992000 0.00000000
vt 29.10992000 0.87786000
vt 29.10992000 0.87786000
vt 29.10992000 0.12214000
vt 29.23206000 0.87786000
vt 29.23206000 0.00000000
vt 29.23206000 0.00000000
vt 0.00000000 0.87786000
vt 0.12214000 0.12214000
vt 0.00000000 0.00000000
vt 0.00000000 0.00000000
vt 0.00000000 -3.37990000
vt 0.00000000 -0.24000000
vt 0.24000000 -3.61990000
vt 0.24000000 0.00000000
vt 0.00000000 -3.37990000
vt 0.00000000 -0.24000000
vt 0.24000000 -3.61990000
vt 0.24000000 0.00000000
vt 3.13990000 -2.60000000
vt 0.00000000 -2.60000000
vt 3.13990000 0.00000000
vt 0.00000000 0.00000000
vt 3.02961000 -0.13740000
vt 1.31359000 -0.13740000
vt 3.02961000 -1.75000000
vt 1.31359000 -1.75000000
vt 0.00000000 -2.60000000
vt 3.61990000 -2.60000000
vt 0.00000000 0.00000000
vt 3.61990000 0.00000000
vt 0.35029000 -0.13740000
vt 2.06631000 -0.13740000
vt 0.35029000 -1.75000000
vt 2.06631000 -1.75000000
vt 0.00000000 1.00000000
vt 23.96870000 1.00000000
vt 0.12214000 0.00000000
vt 23.84657000 0.00000000
vt 0.12214000 0.87786000
vt 0.12214000 0.87786000
vt 23.84657000 0.87786000
vt 23.84657000 0.87786000
vt 23.96870000 0.87786000
vt 23.84657000 0.12214000
vt 0.00000000 0.87786000
vt 0.12214000 0.12214000
vt 23.96870000 0.00000000
vt 0.00000000 0.00000000
vt 23.96870000 0.00000000
vt 0.00000000 0.00000000
vt 0.00000000 -2.60000000
vt 1.07770000 -2.60000000
vt 0.27770000 -2.60000000
vt 3.13990000 -2.60000000
vt 0.00005000 -0.20000000
vt 3.13990000 -0.20000000
vt 0.00000000 0.00000000
vt 0.00005000 0.00000000
vt 1.07770000 -0.60000000
vt 0.27770000 -0.60000000
vt 23.96870000 1.00000000
vt 15.23817000 1.00000000
vt 0.00000000 1.00000000
vt 22.35267000 1.00000000
vt 23.84657000 0.00000000
vt 15.23817000 0.00000000
vt 0.12214000 0.00000000
vt 22.35267000 0.00000000
vt 23.84657000 0.87786000
vt 23.84657000 0.87786000
vt 15.23817000 0.87786000
vt 15.23817000 0.87786000
vt 0.12214000 0.87786000
vt 0.12214000 0.87786000
vt 22.35267000 0.87786000
vt 22.35267000 0.87786000
vt 22.35267000 0.87786000
vt 22.35267000 0.12214000
vt 0.00000000 0.87786000
vt 0.00000000 0.87786000
vt 0.12214000 0.12214000
vt 15.23817000 0.87786000
vt 15.23817000 0.12214000
vt -29.23206000 0.00000000
vt 23.96870000 0.87786000
vt 23.84657000 0.12214000
vt 22.35267000 0.00000000
vt 0.00000000 0.00000000
vt 0.00000000 0.00000000
vt 15.23817000 0.00000000
vt -29.23206000 0.87786000
vt 23.96870000 0.00000000
vt 22.35267000 0.00000000
vt 0.00000000 0.00000000
vt 0.12214000 0.87786000
vt 15.23817000 0.00000000
vt 23.96870000 0.00000000
vt -29.10992000 0.00000000
vt 0.12214000 0.00000000
vt -29.10992000 0.87786000
vt 0.00000000 -0.13740000
vt -3.02961000 0.00000000
vt 0.00000000 -0.13740000
vt -1.31359000 0.00000000
vt 0.00000000 -1.75000000
vt 3.02961000 0.00000000
vt 0.00000000 -1.75000000
vt 1.31359000 0.00000000
vt -0.24000000 -0.13740000
vt -3.02961000 -0.24000000
vt -0.24000000 -0.13740000
vt -1.31359000 -0.24000000
vt 3.02961000 -0.24000000
vt -0.24000000 -1.75000000
vt 1.31359000 -0.24000000
vt -0.24000000 -1.75000000
f 1/1/1 2/2/2 3/3/3
f 2/2/2 1/1/1 5/5/5
f 5/5/5 1/1/1 4/4/4
f 8/8/8 7/7/7 6/6/6
f 10/10/10 6/6/6 7/7/7
f 9/9/9 6/6/6 10/10/10
f 16/16/16 14/14/14 13/13/13
f 13/13/13 12/12/12 11/11/11
f 11/11/11 15/15/15 13/13/13
f 15/15/15 16/16/16 13/13/13
f 18/18/18 20/20/20 19/19/19
f 19/19/19 17/17/17 18/18/18
f 26/26/26 27/27/27 22/22/22
f 23/23/23 22/22/22 27/27/27
f 25/25/25 21/21/21 28/28/28
f 24/24/24 28/28/28 21/21/21
f 33/33/33 36/36/36 30/30/30
f 32/32/32 30/30/30 36/36/36
f 29/29/29 35/35/35 34/34/34
f 35/35/35 29/29/29 31/31/31
f 41/41/41 38/38/38 39/39/39
f 38/38/38 41/41/41 37/37/37
f 37/37/37 41/41/41 40/40/40
f 44/44/44 43/43/43 46/46/46
f 42/42/42 46/46/46 43/43/43
f 45/45/45 46/46/46 42/42/42
f 50/50/50 52/52/52 51/51/51
f 51/51/51 49/49/49 50/50/50
f 51/51/51 47/47/47 49/49/49
f 47/47/47 48/48/48 49/49/49
f 56/56/56 54/54/54 53/53/53
f 53/53/53 55/55/55 56/56/56
f 58/58/58 59/59/59 62/62/62
f 63/63/63 62/62/62 59/59/59
f 57/57/57 61/61/61 60/60/60
f 64/64/64 60/60/60 61/61/61
f 65/65/65 68/68/68 70/70/70
f 72/72/72 70/70/70 68/68/68
f 69/69/69 67/67/67 66/66/66
f 67/67/67 69/69/69 71/71/71
f 75/75/75 74/74/74 73/73/73
f 74/74/74 75/75/75 76/76/76
f 77/77/77 78/78/78 79/79/79
f 80/80/80 79/79/79 78/78/78
f 84/84/84 82/82/82 86/86/86
f 86/86/86 83/83/83 84/84/84
f 86/86/86 85/85/85 83/83/83
f 85/85/85 87/87/87 83/83/83
f 82/82/82 81/81/81 88/88/88
f 88/88/88 86/86/86 82/82/82
f 81/81/81 87/87/87 88/88/88
f 81/81/81 83/83/83 87/87/87
f 91/91/91 89/89/89 93/93/93
f 93/93/93 92/92/92 91/91/91
f 93/93/93 94/94/94 92/92/92
f 94/94/94 96/96/96 92/92/92
f 89/89/89 90/90/90 95/95/95
f 95/95/95 93/93/93 89/89/89
f 90/90/90 96/96/96 95/95/95
f 90/90/90 92/92/92 96/96/96
f 99/99/99 102/102/102 100/100/100
f 104/104/104 100/100/100 102/102/102
f 97/97/97 98/98/98 101/101/101
f 103/103/103 101/101/101 98/98/98
f 106/106/106 111/111/111 108/108/108
f 112/112/112 108/108/108 111/111/111
f 107/107/107 109/109/109 105/105/105
f 109/109/109 107/107/107 110/110/110
f 118/118/118 117/117/117 122/122/122
f 122/122/122 121/121/121 118/118/118
f 121/121/121 114/114/114 118/118/118
f 114/114/114 116/116/116 118/118/118
f 120/120/120 119/119/119 113/113/113
f 113/113/113 117/117/117 120/120/120
f 113/113/113 115/115/115 117/117/117
f 115/115/115 122/122/122 117/117/117
f 129/129/129 136/136/136 128/128/128
f 134/134/134 128/128/128 136/136/136
f 125/125/125 124/124/124 135/135/135
f 133/133/133 135/135/135 124/124/124
f 130/130/130 138/138/138 127/127/127
f 132/132/132 127/127/127 138/138/138
f 137/137/137 126/126/126 131/131/131
f 123/123/123 131/131/131 126/126/126
f 141/141/141 161/161/161 157/157/157
f 161/161/161 141/141/141 150/150/150
f 145/145/145 158/158/158 143/143/143
f 156/156/156 143/143/143 158/158/158
f 142/142/142 152/152/152 144/144/144
f 152/152/152 142/142/142 151/151/151
f 153/153/153 160/160/160 162/162/162
f 160/160/160 153/153/153 146/146/146
f 148/148/148 159/159/159 140/140/140
f 155/155/155 140/140/140 159/159/159
f 139/139/139 154/154/154 147/147/147
f 154/154/154 139/139/139 149/149/149
f 167/167/167 171/171/171 176/176/176
f 171/171/171 167/167/167 163/163/163
f 178/178/178 165/165/165 169/169/169
f 165/165/165 178/178/178 173/173/173
f 166/166/166 172/172/172 164/164/164
f 172/172/172 166/166/166 174/174/174
f 168/168/168 177/177/177 170/170/170
f 177/177/177 168/168/168 175/175/175
                                                                             